STARTFONT 2.1
FONT -URW-ITC Avant Garde-Demi-O-Normal-Sans-14-140-72-72-P-79-ISO8859-1
SIZE 14 72 72
FONTBOUNDINGBOX 23 20 -5 -5

STARTPROPERTIES 22
FONTNAME_REGISTRY "-"
FOUNDRY "URW"
FAMILY_NAME "ITC Avant Garde"
WEIGHT_NAME "Demi"
SLANT "O"
SETWIDTH_NAME "Normal"
ADD_STYLE_NAME "Sans"
PIXEL_SIZE 14
POINT_SIZE 140
RESOLUTION_X 72
RESOLUTION_Y 72
SPACING "P"
CHARSET_REGISTRY "ISO8859"
CHARSET_ENCODING "1"
FULL_NAME "AvantGarde-DemiOblique"
AVERAGE_WIDTH 79
WEIGHT 10
X_HEIGHT 8
QUAD_WIDTH 9
DEFAULT_CHAR 32
FONT_DESCENT 5
FONT_ASCENT 15
ENDPROPERTIES

CHARS 190

STARTCHAR space
ENCODING 32
SWIDTH 280 0
DWIDTH 4 0
BBX 1 1 0 0
BITMAP
00
ENDCHAR

STARTCHAR exclam
ENCODING 33
SWIDTH 280 0
DWIDTH 4 0
BBX 4 11 1 0
BITMAP
30
20
60
60
60
60
60
C0
00
C0
C0
ENDCHAR

STARTCHAR quotedbl
ENCODING 34
SWIDTH 360 0
DWIDTH 5 0
BBX 4 3 2 8
BITMAP
F0
A0
A0
ENDCHAR

STARTCHAR numbersign
ENCODING 35
SWIDTH 560 0
DWIDTH 8 0
BBX 8 11 1 0
BITMAP
1A
1A
16
7F
7E
2C
FE
FE
68
58
D0
ENDCHAR

STARTCHAR dollar
ENCODING 36
SWIDTH 560 0
DWIDTH 8 0
BBX 7 12 1 -2
BITMAP
0C
08
3C
66
60
78
1C
0C
CC
F8
30
60
ENDCHAR

STARTCHAR percent
ENCODING 37
SWIDTH 860 0
DWIDTH 12 0
BBX 10 11 2 0
BITMAP
7180
FB00
DB00
FE00
7400
0C00
0B80
1FC0
36C0
37C0
6380
ENDCHAR

STARTCHAR ampersand
ENCODING 38
SWIDTH 680 0
DWIDTH 10 0
BBX 10 11 1 0
BITMAP
1C00
3E00
3600
3E00
1CC0
7DC0
EF80
C700
CF00
FF00
7180
ENDCHAR

STARTCHAR quoteright
ENCODING 39
SWIDTH 280 0
DWIDTH 4 0
BBX 3 4 2 7
BITMAP
60
C0
40
80
ENDCHAR

STARTCHAR parenleft
ENCODING 40
SWIDTH 380 0
DWIDTH 5 0
BBX 5 14 2 -3
BITMAP
08
18
30
70
60
C0
C0
C0
C0
C0
C0
60
60
20
ENDCHAR

STARTCHAR parenright
ENCODING 41
SWIDTH 380 0
DWIDTH 5 0
BBX 5 14 0 -3
BITMAP
20
30
38
18
18
18
18
18
18
30
30
60
C0
80
ENDCHAR

STARTCHAR asterisk
ENCODING 42
SWIDTH 440 0
DWIDTH 6 0
BBX 4 4 2 6
BITMAP
50
E0
F0
A0
ENDCHAR

STARTCHAR plus
ENCODING 43
SWIDTH 600 0
DWIDTH 8 0
BBX 7 7 1 2
BITMAP
18
18
FE
FE
10
30
30
ENDCHAR

STARTCHAR comma
ENCODING 44
SWIDTH 280 0
DWIDTH 4 0
BBX 3 4 1 -3
BITMAP
E0
40
40
80
ENDCHAR

STARTCHAR minus
ENCODING 45
SWIDTH 600 0
DWIDTH 8 0
BBX 7 2 1 4
BITMAP
FE
FE
ENDCHAR

STARTCHAR period
ENCODING 46
SWIDTH 280 0
DWIDTH 4 0
BBX 2 2 1 0
BITMAP
C0
C0
ENDCHAR

STARTCHAR slash
ENCODING 47
SWIDTH 460 0
DWIDTH 6 0
BBX 8 14 0 -3
BITMAP
03
02
06
06
0C
0C
18
18
10
30
20
60
40
C0
ENDCHAR

STARTCHAR zero
ENCODING 48
SWIDTH 560 0
DWIDTH 8 0
BBX 8 11 1 0
BITMAP
1E
3F
63
63
43
C6
C6
C6
C6
FC
78
ENDCHAR

STARTCHAR one
ENCODING 49
SWIDTH 560 0
DWIDTH 8 0
BBX 4 11 3 0
BITMAP
70
E0
60
60
60
60
60
C0
C0
C0
C0
ENDCHAR

STARTCHAR two
ENCODING 50
SWIDTH 560 0
DWIDTH 8 0
BBX 8 11 1 0
BITMAP
1E
3F
33
63
03
06
1C
38
70
FE
FE
ENDCHAR

STARTCHAR three
ENCODING 51
SWIDTH 560 0
DWIDTH 8 0
BBX 7 11 1 0
BITMAP
1C
3E
36
06
1C
1E
06
C6
C6
FC
78
ENDCHAR

STARTCHAR four
ENCODING 52
SWIDTH 560 0
DWIDTH 8 0
BBX 8 11 0 0
BITMAP
03
07
0F
1E
3E
76
E6
FF
FF
0C
0C
ENDCHAR

STARTCHAR five
ENCODING 53
SWIDTH 560 0
DWIDTH 8 0
BBX 8 11 1 0
BITMAP
3F
3E
30
7C
7E
67
03
C3
C7
FE
7C
ENDCHAR

STARTCHAR six
ENCODING 54
SWIDTH 560 0
DWIDTH 8 0
BBX 7 11 1 0
BITMAP
06
0C
18
38
7C
66
C6
C6
C6
FC
78
ENDCHAR

STARTCHAR seven
ENCODING 55
SWIDTH 560 0
DWIDTH 8 0
BBX 8 11 1 0
BITMAP
3F
7F
06
0E
0C
18
18
30
70
60
E0
ENDCHAR

STARTCHAR eight
ENCODING 56
SWIDTH 560 0
DWIDTH 8 0
BBX 7 11 1 0
BITMAP
1C
3E
66
66
3C
7E
E6
C6
CE
FC
78
ENDCHAR

STARTCHAR nine
ENCODING 57
SWIDTH 560 0
DWIDTH 8 0
BBX 7 11 2 0
BITMAP
3C
7E
E6
C6
C6
EE
7C
1C
38
70
E0
ENDCHAR

STARTCHAR colon
ENCODING 58
SWIDTH 280 0
DWIDTH 4 0
BBX 3 8 1 0
BITMAP
60
60
00
00
00
00
C0
C0
ENDCHAR

STARTCHAR semicolon
ENCODING 59
SWIDTH 280 0
DWIDTH 4 0
BBX 4 11 1 -3
BITMAP
30
60
00
00
00
00
60
C0
40
40
80
ENDCHAR

STARTCHAR less
ENCODING 60
SWIDTH 600 0
DWIDTH 8 0
BBX 8 8 1 0
BITMAP
03
0F
3C
F0
E0
78
1E
06
ENDCHAR

STARTCHAR equal
ENCODING 61
SWIDTH 600 0
DWIDTH 8 0
BBX 8 5 1 3
BITMAP
7F
7F
00
FE
FE
ENDCHAR

STARTCHAR greater
ENCODING 62
SWIDTH 600 0
DWIDTH 8 0
BBX 8 8 1 0
BITMAP
60
78
1E
07
0F
3C
F0
C0
ENDCHAR

STARTCHAR question
ENCODING 63
SWIDTH 560 0
DWIDTH 8 0
BBX 6 11 2 0
BITMAP
78
FC
CC
0C
1C
38
30
60
00
60
60
ENDCHAR

STARTCHAR at
ENCODING 64
SWIDTH 740 0
DWIDTH 10 0
BBX 11 11 1 0
BITMAP
1F80
30C0
6060
CF20
9F20
B320
B240
BE40
DB80
6000
3F00
ENDCHAR

STARTCHAR A
ENCODING 65
SWIDTH 740 0
DWIDTH 10 0
BBX 10 11 0 0
BITMAP
0300
0700
0700
0D80
0D80
1980
3F80
3F80
71C0
60C0
C0C0
ENDCHAR

STARTCHAR B
ENCODING 66
SWIDTH 580 0
DWIDTH 8 0
BBX 7 11 1 0
BITMAP
3C
3E
66
66
7E
7C
66
E6
C6
FC
F8
ENDCHAR

STARTCHAR C
ENCODING 67
SWIDTH 780 0
DWIDTH 11 0
BBX 11 11 1 0
BITMAP
0F80
3FC0
70E0
6000
C000
C000
C000
C000
E1C0
7F80
3E00
ENDCHAR

STARTCHAR D
ENCODING 68
SWIDTH 700 0
DWIDTH 10 0
BBX 9 11 1 0
BITMAP
3E00
3F80
6380
6180
6180
6180
6180
6380
C700
FE00
FC00
ENDCHAR

STARTCHAR E
ENCODING 69
SWIDTH 520 0
DWIDTH 7 0
BBX 7 11 1 0
BITMAP
3E
3E
60
60
7E
7C
60
60
C0
FC
FC
ENDCHAR

STARTCHAR F
ENCODING 70
SWIDTH 480 0
DWIDTH 7 0
BBX 7 11 1 0
BITMAP
3E
3E
60
60
7C
7C
60
60
C0
C0
C0
ENDCHAR

STARTCHAR G
ENCODING 71
SWIDTH 840 0
DWIDTH 12 0
BBX 11 11 1 0
BITMAP
0F80
1FC0
3060
6000
C000
CFE0
CFE0
C060
E1C0
7F80
3E00
ENDCHAR

STARTCHAR H
ENCODING 72
SWIDTH 680 0
DWIDTH 10 0
BBX 9 11 1 0
BITMAP
3180
3180
6180
6180
7F80
7F80
6300
6300
C300
C300
C300
ENDCHAR

STARTCHAR I
ENCODING 73
SWIDTH 280 0
DWIDTH 4 0
BBX 4 11 1 0
BITMAP
30
30
60
60
60
60
60
60
C0
C0
C0
ENDCHAR

STARTCHAR J
ENCODING 74
SWIDTH 480 0
DWIDTH 7 0
BBX 7 11 1 0
BITMAP
06
06
06
06
0C
0C
0C
0C
CC
F8
70
ENDCHAR

STARTCHAR K
ENCODING 75
SWIDTH 620 0
DWIDTH 9 0
BBX 9 11 1 0
BITMAP
3380
3700
6E00
7C00
7800
7000
7800
DC00
CC00
CE00
C700
ENDCHAR

STARTCHAR L
ENCODING 76
SWIDTH 440 0
DWIDTH 6 0
BBX 5 11 1 0
BITMAP
30
30
60
60
60
60
60
60
C0
F8
F8
ENDCHAR

STARTCHAR M
ENCODING 77
SWIDTH 900 0
DWIDTH 13 0
BBX 13 11 1 0
BITMAP
3838
3878
7878
78D0
68B0
69B0
6D30
6F20
CE60
CC60
C460
ENDCHAR

STARTCHAR N
ENCODING 78
SWIDTH 740 0
DWIDTH 10 0
BBX 10 11 1 0
BITMAP
30C0
38C0
78C0
78C0
6CC0
6D80
6D80
E780
C780
C300
C300
ENDCHAR

STARTCHAR O
ENCODING 79
SWIDTH 840 0
DWIDTH 12 0
BBX 11 11 1 0
BITMAP
0F80
3FC0
70E0
6060
C060
C060
C060
C0C0
E1C0
7F80
3E00
ENDCHAR

STARTCHAR P
ENCODING 80
SWIDTH 560 0
DWIDTH 8 0
BBX 8 11 1 0
BITMAP
3E
3F
63
63
63
7E
7C
60
C0
C0
C0
ENDCHAR

STARTCHAR Q
ENCODING 81
SWIDTH 840 0
DWIDTH 12 0
BBX 11 11 1 0
BITMAP
0F80
3FC0
70E0
6060
C060
C060
FC60
FFC0
E380
7FE0
3EE0
ENDCHAR

STARTCHAR R
ENCODING 82
SWIDTH 580 0
DWIDTH 8 0
BBX 8 11 1 0
BITMAP
3E
3F
63
63
63
7E
7C
78
DC
CC
CE
ENDCHAR

STARTCHAR S
ENCODING 83
SWIDTH 520 0
DWIDTH 7 0
BBX 7 11 1 0
BITMAP
1C
3E
66
60
78
3C
0E
06
CE
FC
78
ENDCHAR

STARTCHAR T
ENCODING 84
SWIDTH 420 0
DWIDTH 6 0
BBX 6 11 2 0
BITMAP
FC
FC
30
30
60
60
60
60
60
60
C0
ENDCHAR

STARTCHAR U
ENCODING 85
SWIDTH 640 0
DWIDTH 9 0
BBX 8 11 2 0
BITMAP
63
63
63
63
43
C6
C6
C6
C6
FC
78
ENDCHAR

STARTCHAR V
ENCODING 86
SWIDTH 700 0
DWIDTH 10 0
BBX 10 11 2 0
BITMAP
C1C0
C180
C380
6300
6600
6600
6C00
6C00
3800
3800
3000
ENDCHAR

STARTCHAR W
ENCODING 87
SWIDTH 900 0
DWIDTH 13 0
BBX 13 11 2 0
BITMAP
C638
C630
CE70
CE60
CE60
5AC0
5AC0
5380
7380
6300
6300
ENDCHAR

STARTCHAR X
ENCODING 88
SWIDTH 680 0
DWIDTH 10 0
BBX 11 11 0 0
BITMAP
30E0
18C0
1980
0F80
0F00
0600
0E00
1B00
3300
6180
C180
ENDCHAR

STARTCHAR Y
ENCODING 89
SWIDTH 620 0
DWIDTH 9 0
BBX 9 11 2 0
BITMAP
C380
E300
6600
6E00
6C00
3800
3800
3000
3000
3000
6000
ENDCHAR

STARTCHAR Z
ENCODING 90
SWIDTH 500 0
DWIDTH 7 0
BBX 8 11 0 0
BITMAP
3F
3F
06
0E
0C
18
38
70
60
FE
FE
ENDCHAR

STARTCHAR bracketleft
ENCODING 91
SWIDTH 320 0
DWIDTH 4 0
BBX 5 14 1 -3
BITMAP
38
70
60
60
60
60
40
C0
C0
C0
C0
C0
E0
40
ENDCHAR

STARTCHAR backslash
ENCODING 92
SWIDTH 640 0
DWIDTH 9 0
BBX 4 11 3 0
BITMAP
C0
C0
C0
40
60
60
60
20
20
30
30
ENDCHAR

STARTCHAR bracketright
ENCODING 93
SWIDTH 320 0
DWIDTH 4 0
BBX 5 14 0 -3
BITMAP
20
30
38
18
18
10
30
30
30
30
30
60
E0
80
ENDCHAR

STARTCHAR asciicircum
ENCODING 94
SWIDTH 600 0
DWIDTH 8 0
BBX 7 6 2 5
BITMAP
18
3C
3C
6C
E6
C6
ENDCHAR

STARTCHAR underscore
ENCODING 95
SWIDTH 500 0
DWIDTH 7 0
BBX 7 1 0 -3
BITMAP
FE
ENDCHAR

STARTCHAR quoteleft
ENCODING 96
SWIDTH 280 0
DWIDTH 4 0
BBX 3 4 2 7
BITMAP
60
80
C0
C0
ENDCHAR

STARTCHAR a
ENCODING 97
SWIDTH 660 0
DWIDTH 9 0
BBX 9 8 1 0
BITMAP
1D80
7F80
6380
C300
C300
C300
FF00
7B00
ENDCHAR

STARTCHAR b
ENCODING 98
SWIDTH 660 0
DWIDTH 9 0
BBX 9 11 1 0
BITMAP
3000
3000
6000
6F00
7F80
7180
6180
6180
E300
FF00
FC00
ENDCHAR

STARTCHAR c
ENCODING 99
SWIDTH 640 0
DWIDTH 9 0
BBX 8 8 1 0
BITMAP
1E
7F
63
C0
C0
C7
FE
38
ENDCHAR

STARTCHAR d
ENCODING 100
SWIDTH 660 0
DWIDTH 9 0
BBX 9 11 1 0
BITMAP
0180
0180
0180
1D80
7F80
6300
C300
C300
C700
FF00
7B00
ENDCHAR

STARTCHAR e
ENCODING 101
SWIDTH 640 0
DWIDTH 9 0
BBX 8 8 1 0
BITMAP
1E
7F
63
FF
FF
C0
FF
7E
ENDCHAR

STARTCHAR f
ENCODING 102
SWIDTH 280 0
DWIDTH 4 0
BBX 5 11 1 0
BITMAP
18
38
20
70
F0
60
60
60
C0
C0
C0
ENDCHAR

STARTCHAR g
ENCODING 103
SWIDTH 660 0
DWIDTH 9 0
BBX 10 11 0 -3
BITMAP
1EC0
3F80
7180
6180
6180
6380
7F00
3F00
0300
FE00
7C00
ENDCHAR

STARTCHAR h
ENCODING 104
SWIDTH 600 0
DWIDTH 8 0
BBX 8 11 1 0
BITMAP
30
30
60
6E
7F
63
63
63
C6
C6
C6
ENDCHAR

STARTCHAR i
ENCODING 105
SWIDTH 240 0
DWIDTH 3 0
BBX 4 11 1 0
BITMAP
30
30
00
60
60
60
60
60
C0
C0
C0
ENDCHAR

STARTCHAR j
ENCODING 106
SWIDTH 260 0
DWIDTH 4 0
BBX 5 14 0 -3
BITMAP
18
18
00
18
30
30
30
30
30
20
60
60
E0
C0
ENDCHAR

STARTCHAR k
ENCODING 107
SWIDTH 580 0
DWIDTH 8 0
BBX 8 11 1 0
BITMAP
30
30
60
67
6E
6C
78
58
DC
CC
CE
ENDCHAR

STARTCHAR l
ENCODING 108
SWIDTH 240 0
DWIDTH 3 0
BBX 4 11 1 0
BITMAP
30
30
60
60
60
60
60
40
C0
C0
C0
ENDCHAR

STARTCHAR m
ENCODING 109
SWIDTH 940 0
DWIDTH 13 0
BBX 13 8 1 0
BITMAP
6EF0
7FF0
6318
6310
6230
C630
C630
C630
ENDCHAR

STARTCHAR n
ENCODING 110
SWIDTH 600 0
DWIDTH 8 0
BBX 8 8 1 0
BITMAP
6E
7F
63
63
63
C2
C6
C6
ENDCHAR

STARTCHAR o
ENCODING 111
SWIDTH 640 0
DWIDTH 9 0
BBX 8 8 1 0
BITMAP
1E
7F
63
C3
C3
C7
FE
3C
ENDCHAR

STARTCHAR p
ENCODING 112
SWIDTH 660 0
DWIDTH 9 0
BBX 9 11 0 -3
BITMAP
3F00
3F80
7180
6180
6180
6380
7F00
5E00
C000
C000
C000
ENDCHAR

STARTCHAR q
ENCODING 113
SWIDTH 660 0
DWIDTH 9 0
BBX 9 11 1 -3
BITMAP
1D80
7F80
6700
C300
C300
C700
FF00
7B00
0200
0600
0600
ENDCHAR

STARTCHAR r
ENCODING 114
SWIDTH 320 0
DWIDTH 4 0
BBX 5 8 1 0
BITMAP
58
78
60
60
60
C0
C0
C0
ENDCHAR

STARTCHAR s
ENCODING 115
SWIDTH 440 0
DWIDTH 6 0
BBX 6 8 1 0
BITMAP
38
6C
60
30
18
88
F8
70
ENDCHAR

STARTCHAR t
ENCODING 116
SWIDTH 300 0
DWIDTH 4 0
BBX 4 11 1 0
BITMAP
30
30
20
F0
F0
60
60
60
C0
C0
C0
ENDCHAR

STARTCHAR u
ENCODING 117
SWIDTH 600 0
DWIDTH 8 0
BBX 8 8 1 0
BITMAP
63
63
C2
C6
C6
C6
FE
76
ENDCHAR

STARTCHAR v
ENCODING 118
SWIDTH 560 0
DWIDTH 8 0
BBX 8 8 1 0
BITMAP
C7
C6
4C
6C
78
38
30
30
ENDCHAR

STARTCHAR w
ENCODING 119
SWIDTH 800 0
DWIDTH 11 0
BBX 11 8 2 0
BITMAP
CCE0
CCC0
DCC0
5D80
5580
7700
6700
6600
ENDCHAR

STARTCHAR x
ENCODING 120
SWIDTH 560 0
DWIDTH 8 0
BBX 9 8 0 0
BITMAP
3380
3700
1E00
1C00
1C00
3600
6600
C300
ENDCHAR

STARTCHAR y
ENCODING 121
SWIDTH 580 0
DWIDTH 8 0
BBX 8 11 1 -3
BITMAP
63
67
66
6C
2C
38
38
30
70
60
C0
ENDCHAR

STARTCHAR z
ENCODING 122
SWIDTH 460 0
DWIDTH 6 0
BBX 7 8 0 0
BITMAP
3E
3E
0C
18
30
60
FC
FC
ENDCHAR

STARTCHAR braceleft
ENCODING 123
SWIDTH 340 0
DWIDTH 5 0
BBX 5 14 1 -3
BITMAP
18
30
30
20
20
60
E0
C0
40
40
40
C0
C0
60
ENDCHAR

STARTCHAR bar
ENCODING 124
SWIDTH 600 0
DWIDTH 8 0
BBX 4 11 3 0
BITMAP
30
20
60
60
60
60
40
40
C0
C0
C0
ENDCHAR

STARTCHAR braceright
ENCODING 125
SWIDTH 340 0
DWIDTH 5 0
BBX 5 14 0 -3
BITMAP
30
18
18
10
10
38
18
10
30
20
20
20
60
C0
ENDCHAR

STARTCHAR asciitilde
ENCODING 126
SWIDTH 600 0
DWIDTH 8 0
BBX 7 3 1 3
BITMAP
72
FE
9C
ENDCHAR

STARTCHAR exclamdown
ENCODING 161
SWIDTH 280 0
DWIDTH 4 0
BBX 4 11 1 -3
BITMAP
30
30
00
60
60
60
60
60
C0
C0
C0
ENDCHAR

STARTCHAR cent
ENCODING 162
SWIDTH 560 0
DWIDTH 8 0
BBX 7 10 1 1
BITMAP
08
18
7C
66
C0
C0
CC
78
30
20
ENDCHAR

STARTCHAR sterling
ENCODING 163
SWIDTH 560 0
DWIDTH 8 0
BBX 8 11 1 0
BITMAP
1E
3F
73
60
FC
FC
60
33
33
FF
FE
ENDCHAR

STARTCHAR currency
ENCODING 164
SWIDTH 560 0
DWIDTH 8 0
BBX 8 7 1 2
BITMAP
3D
7F
63
C3
C6
FE
BC
ENDCHAR

STARTCHAR yen
ENCODING 165
SWIDTH 560 0
DWIDTH 8 0
BBX 10 11 1 0
BITMAP
61C0
6380
3300
3600
FF00
1800
FE00
FE00
1000
3000
3000
ENDCHAR

STARTCHAR brokenbar
ENCODING 166
SWIDTH 600 0
DWIDTH 8 0
BBX 4 11 3 0
BITMAP
30
20
20
60
60
00
00
40
C0
C0
C0
ENDCHAR

STARTCHAR section
ENCODING 167
SWIDTH 560 0
DWIDTH 8 0
BBX 8 14 1 -3
BITMAP
1E
3F
33
30
7C
CE
C6
F6
7C
18
0C
CC
FC
78
ENDCHAR

STARTCHAR dieresis
ENCODING 168
SWIDTH 500 0
DWIDTH 7 0
BBX 5 2 3 9
BITMAP
D8
D8
ENDCHAR

STARTCHAR copyright
ENCODING 169
SWIDTH 740 0
DWIDTH 10 0
BBX 11 11 1 0
BITMAP
1F80
30C0
6F60
DFA0
B9A0
B020
B120
BF60
DEC0
6180
3F00
ENDCHAR

STARTCHAR ordfeminine
ENCODING 170
SWIDTH 360 0
DWIDTH 5 0
BBX 5 6 1 5
BITMAP
38
48
48
78
00
F8
ENDCHAR

STARTCHAR guillemotleft
ENCODING 171
SWIDTH 460 0
DWIDTH 6 0
BBX 6 5 1 1
BITMAP
6C
D8
90
D8
48
ENDCHAR

STARTCHAR logicalnot
ENCODING 172
SWIDTH 600 0
DWIDTH 8 0
BBX 8 4 1 2
BITMAP
FF
FF
06
06
ENDCHAR

STARTCHAR hyphen
ENCODING 173
SWIDTH 420 0
DWIDTH 6 0
BBX 4 2 2 3
BITMAP
F0
F0
ENDCHAR

STARTCHAR registered
ENCODING 174
SWIDTH 740 0
DWIDTH 10 0
BBX 11 11 1 0
BITMAP
1F80
30C0
7E60
DF20
9B20
BE20
B720
B360
C0C0
6180
3F00
ENDCHAR

STARTCHAR macron
ENCODING 175
SWIDTH 420 0
DWIDTH 6 0
BBX 4 2 3 9
BITMAP
F0
F0
ENDCHAR

STARTCHAR degree
ENCODING 176
SWIDTH 400 0
DWIDTH 8 0
BBX 4 4 3 5
BITMAP
60
90
90
60
ENDCHAR

STARTCHAR plusminus
ENCODING 177
SWIDTH 600 0
DWIDTH 8 0
BBX 9 9 0 0
BITMAP
0C00
0C00
7F80
7F00
0800
1800
0000
FF00
FF00
ENDCHAR

STARTCHAR twosuperior
ENCODING 178
SWIDTH 336 0
DWIDTH 5 0
BBX 5 6 -3 5
BITMAP
30
48
10
30
40
F0
ENDCHAR

STARTCHAR threesuperior
ENCODING 179
SWIDTH 336 0
DWIDTH 5 0
BBX 4 6 -3 5
BITMAP
70
10
20
10
90
E0
ENDCHAR

STARTCHAR acute
ENCODING 180
SWIDTH 420 0
DWIDTH 6 0
BBX 4 3 3 8
BITMAP
30
F0
C0
ENDCHAR

STARTCHAR mu
ENCODING 181
SWIDTH 576 0
DWIDTH 8 0
BBX 9 11 0 -3
BITMAP
3180
3180
2100
6300
6300
6300
7F00
5B00
C000
C000
C000
ENDCHAR

STARTCHAR paragraph
ENCODING 182
SWIDTH 600 0
DWIDTH 8 0
BBX 7 14 2 -3
BITMAP
3E
7E
F6
F6
F6
76
34
34
34
2C
2C
6C
68
68
ENDCHAR

STARTCHAR periodcentered
ENCODING 183
SWIDTH 280 0
DWIDTH 5 0
BBX 2 2 2 4
BITMAP
C0
C0
ENDCHAR

STARTCHAR cedilla
ENCODING 184
SWIDTH 340 0
DWIDTH 5 0
BBX 3 4 1 -5
BITMAP
40
E0
20
C0
ENDCHAR

STARTCHAR onesuperior
ENCODING 185
SWIDTH 336 0
DWIDTH 5 0
BBX 2 6 -5 5
BITMAP
C0
40
40
C0
80
80
ENDCHAR

STARTCHAR ordmasculine
ENCODING 186
SWIDTH 360 0
DWIDTH 5 0
BBX 5 6 1 5
BITMAP
38
48
48
70
00
F0
ENDCHAR

STARTCHAR guillemotright
ENCODING 187
SWIDTH 460 0
DWIDTH 6 0
BBX 6 5 1 1
BITMAP
48
48
6C
D8
90
ENDCHAR

STARTCHAR onequarter
ENCODING 188
SWIDTH 840 0
DWIDTH 12 0
BBX 10 11 4 0
BITMAP
C100
4300
4200
8600
8400
8CC0
1980
1380
3680
2780
6180
ENDCHAR

STARTCHAR onehalf
ENCODING 189
SWIDTH 840 0
DWIDTH 12 0
BBX 10 11 4 0
BITMAP
C100
4300
4200
8600
8400
8D80
1A40
1080
3100
2200
6780
ENDCHAR

STARTCHAR threequarters
ENCODING 190
SWIDTH 840 0
DWIDTH 12 0
BBX 12 11 6 0
BITMAP
7040
10C0
3080
1180
9100
E330
0660
04E0
0DA0
09E0
1860
ENDCHAR

STARTCHAR questiondown
ENCODING 191
SWIDTH 560 0
DWIDTH 8 0
BBX 6 11 1 -3
BITMAP
0C
18
00
18
38
70
E0
C0
CC
FC
78
ENDCHAR

STARTCHAR Agrave
ENCODING 192
SWIDTH 740 0
DWIDTH 10 0
BBX 10 15 0 0
BITMAP
0100
03C0
0080
0000
0300
0700
0700
0D80
0D80
1980
3F80
3F80
71C0
60C0
C0C0
ENDCHAR

STARTCHAR Aacute
ENCODING 193
SWIDTH 740 0
DWIDTH 10 0
BBX 10 15 0 0
BITMAP
0180
0780
0600
0000
0300
0700
0700
0D80
0D80
1980
3F80
3F80
71C0
60C0
C0C0
ENDCHAR

STARTCHAR Acircumflex
ENCODING 194
SWIDTH 740 0
DWIDTH 10 0
BBX 10 14 0 0
BITMAP
0300
0FC0
0000
0300
0700
0700
0D80
0D80
1980
3F80
3F80
71C0
60C0
C0C0
ENDCHAR

STARTCHAR Atilde
ENCODING 195
SWIDTH 740 0
DWIDTH 10 0
BBX 10 14 0 0
BITMAP
0780
07C0
0000
0300
0700
0700
0D80
0D80
1980
3F80
3F80
71C0
60C0
C0C0
ENDCHAR

STARTCHAR Adieresis
ENCODING 196
SWIDTH 740 0
DWIDTH 10 0
BBX 10 14 0 0
BITMAP
06C0
06C0
0000
0300
0700
0700
0D80
0D80
1980
3F80
3F80
71C0
60C0
C0C0
ENDCHAR

STARTCHAR Aring
ENCODING 197
SWIDTH 740 0
DWIDTH 10 0
BBX 10 15 0 0
BITMAP
0180
0280
0300
0000
0300
0700
0700
0D80
0D80
1980
3F80
3F80
71C0
60C0
C0C0
ENDCHAR

STARTCHAR AE
ENCODING 198
SWIDTH 900 0
DWIDTH 13 0
BBX 13 11 0 0
BITMAP
00F8
01F8
03C0
03C0
06F8
0CF0
1F80
1F80
3180
71F0
E1F0
ENDCHAR

STARTCHAR Ccedilla
ENCODING 199
SWIDTH 780 0
DWIDTH 11 0
BBX 11 15 1 -4
BITMAP
0F80
3FC0
70E0
6000
C000
C000
C000
C000
E1C0
7F80
3E00
1000
3800
0800
3000
ENDCHAR

STARTCHAR Egrave
ENCODING 200
SWIDTH 520 0
DWIDTH 7 0
BBX 7 15 1 0
BITMAP
08
1E
04
00
3E
3E
60
60
7E
7C
60
60
C0
FC
FC
ENDCHAR

STARTCHAR Eacute
ENCODING 201
SWIDTH 520 0
DWIDTH 7 0
BBX 7 15 1 0
BITMAP
06
1E
18
00
3E
3E
60
60
7E
7C
60
60
C0
FC
FC
ENDCHAR

STARTCHAR Ecircumflex
ENCODING 202
SWIDTH 520 0
DWIDTH 7 0
BBX 8 14 1 0
BITMAP
0C
3F
00
3E
3E
60
60
7E
7C
60
60
C0
FC
FC
ENDCHAR

STARTCHAR Edieresis
ENCODING 203
SWIDTH 520 0
DWIDTH 7 0
BBX 7 14 1 0
BITMAP
36
36
00
3E
3E
60
60
7E
7C
60
60
C0
FC
FC
ENDCHAR

STARTCHAR Igrave
ENCODING 204
SWIDTH 280 0
DWIDTH 4 0
BBX 5 15 1 0
BITMAP
20
78
10
00
30
30
60
60
60
60
60
60
C0
C0
C0
ENDCHAR

STARTCHAR Iacute
ENCODING 205
SWIDTH 280 0
DWIDTH 4 0
BBX 5 15 1 0
BITMAP
18
78
60
00
30
30
60
60
60
60
60
60
C0
C0
C0
ENDCHAR

STARTCHAR Icircumflex
ENCODING 206
SWIDTH 280 0
DWIDTH 4 0
BBX 6 14 1 0
BITMAP
30
FC
00
30
30
60
60
60
60
60
60
C0
C0
C0
ENDCHAR

STARTCHAR Idieresis
ENCODING 207
SWIDTH 280 0
DWIDTH 4 0
BBX 6 14 1 0
BITMAP
6C
6C
00
30
30
60
60
60
60
60
60
C0
C0
C0
ENDCHAR

STARTCHAR Eth
ENCODING 208
SWIDTH 742 0
DWIDTH 10 0
BBX 10 11 1 0
BITMAP
3E00
3F80
3180
61C0
F8C0
F880
6180
6180
6700
FE00
FC00
ENDCHAR

STARTCHAR Ntilde
ENCODING 209
SWIDTH 740 0
DWIDTH 10 0
BBX 10 14 1 0
BITMAP
0F00
0F80
0000
30C0
38C0
78C0
78C0
6CC0
6D80
6D80
6780
C780
C380
C300
ENDCHAR

STARTCHAR Ograve
ENCODING 210
SWIDTH 840 0
DWIDTH 12 0
BBX 11 15 1 0
BITMAP
0200
0780
0100
0000
0F80
3FC0
70E0
6060
C060
C060
C060
C0C0
E1C0
7F80
3E00
ENDCHAR

STARTCHAR Oacute
ENCODING 211
SWIDTH 840 0
DWIDTH 12 0
BBX 11 15 1 0
BITMAP
0180
0780
0600
0000
0F80
3FC0
70E0
6060
C060
C060
C060
C0C0
E1C0
7F80
3E00
ENDCHAR

STARTCHAR Ocircumflex
ENCODING 212
SWIDTH 840 0
DWIDTH 12 0
BBX 11 14 1 0
BITMAP
0300
0FC0
0000
0F80
3FC0
70E0
6060
C060
C060
C060
C0C0
E1C0
7F80
3E00
ENDCHAR

STARTCHAR Otilde
ENCODING 213
SWIDTH 840 0
DWIDTH 12 0
BBX 11 14 1 0
BITMAP
0780
07C0
0000
0F80
3FC0
70E0
6060
C060
C060
C060
C0C0
E1C0
7F80
3E00
ENDCHAR

STARTCHAR Odieresis
ENCODING 214
SWIDTH 840 0
DWIDTH 12 0
BBX 11 14 1 0
BITMAP
0D80
0D80
0000
0F80
3FC0
70E0
6060
C060
C060
C060
C0C0
E1C0
7F80
3E00
ENDCHAR

STARTCHAR multiply
ENCODING 215
SWIDTH 600 0
DWIDTH 8 0
BBX 8 6 1 2
BITMAP
22
77
3C
3C
EE
44
ENDCHAR

STARTCHAR Oslash
ENCODING 216
SWIDTH 840 0
DWIDTH 12 0
BBX 11 12 1 0
BITMAP
0060
0FE0
3FC0
71E0
6360
C660
CC60
D860
F8C0
71C0
FF80
DE00
ENDCHAR

STARTCHAR Ugrave
ENCODING 217
SWIDTH 640 0
DWIDTH 9 0
BBX 8 15 2 0
BITMAP
08
1E
04
00
63
63
63
63
43
C6
C6
C6
C6
FC
78
ENDCHAR

STARTCHAR Uacute
ENCODING 218
SWIDTH 640 0
DWIDTH 9 0
BBX 8 15 2 0
BITMAP
06
1E
18
00
63
63
63
63
43
C6
C6
C6
C6
FC
78
ENDCHAR

STARTCHAR Ucircumflex
ENCODING 219
SWIDTH 640 0
DWIDTH 9 0
BBX 8 14 2 0
BITMAP
0C
3F
00
63
63
63
63
43
C6
C6
C6
C6
FC
78
ENDCHAR

STARTCHAR Udieresis
ENCODING 220
SWIDTH 640 0
DWIDTH 9 0
BBX 8 14 2 0
BITMAP
1B
1B
00
63
63
63
63
43
C6
C6
C6
C6
FC
78
ENDCHAR

STARTCHAR Yacute
ENCODING 221
SWIDTH 620 0
DWIDTH 9 0
BBX 9 15 2 0
BITMAP
0600
1E00
1800
0000
C380
E300
6600
6E00
6C00
3800
3800
3000
3000
3000
6000
ENDCHAR

STARTCHAR Thorn
ENCODING 222
SWIDTH 560 0
DWIDTH 8 0
BBX 8 11 1 0
BITMAP
30
30
7E
7E
63
63
66
7E
FC
C0
C0
ENDCHAR

STARTCHAR germandbls
ENCODING 223
SWIDTH 600 0
DWIDTH 8 0
BBX 8 11 1 0
BITMAP
1E
3F
33
67
6E
6E
67
C3
F3
FE
DC
ENDCHAR

STARTCHAR agrave
ENCODING 224
SWIDTH 660 0
DWIDTH 9 0
BBX 9 12 1 0
BITMAP
0400
0F00
0200
0000
1D80
7F80
6380
C300
C300
C300
FF00
7B00
ENDCHAR

STARTCHAR aacute
ENCODING 225
SWIDTH 660 0
DWIDTH 9 0
BBX 9 12 1 0
BITMAP
0300
0F00
0C00
0000
1D80
7F80
6380
C300
C300
C300
FF00
7B00
ENDCHAR

STARTCHAR acircumflex
ENCODING 226
SWIDTH 660 0
DWIDTH 9 0
BBX 9 11 1 0
BITMAP
0600
1F80
0000
1D80
7F80
6380
C300
C300
C300
FF00
7B00
ENDCHAR

STARTCHAR atilde
ENCODING 227
SWIDTH 660 0
DWIDTH 9 0
BBX 9 11 1 0
BITMAP
1D00
1700
0000
1B80
7F80
6380
C300
C300
C300
FF00
7B00
ENDCHAR

STARTCHAR adieresis
ENCODING 228
SWIDTH 660 0
DWIDTH 9 0
BBX 9 11 1 0
BITMAP
1B00
1B00
0000
1D80
7F80
6380
C300
C300
C300
FF00
7B00
ENDCHAR

STARTCHAR aring
ENCODING 229
SWIDTH 660 0
DWIDTH 9 0
BBX 9 12 1 0
BITMAP
0600
0A00
0C00
0000
1D80
7F80
6380
C300
C300
C300
FF00
7B00
ENDCHAR

STARTCHAR ae
ENCODING 230
SWIDTH 1080 0
DWIDTH 15 0
BBX 14 8 1 0
BITMAP
3B78
7FFC
E78C
C3FC
C3FC
C780
FFFC
7B78
ENDCHAR

STARTCHAR ccedilla
ENCODING 231
SWIDTH 640 0
DWIDTH 9 0
BBX 8 12 1 -4
BITMAP
1E
7F
63
C0
C0
C7
FE
38
10
38
08
30
ENDCHAR

STARTCHAR egrave
ENCODING 232
SWIDTH 640 0
DWIDTH 9 0
BBX 8 12 1 0
BITMAP
08
1E
04
00
1E
7F
63
FF
FF
C0
FF
7E
ENDCHAR

STARTCHAR eacute
ENCODING 233
SWIDTH 640 0
DWIDTH 9 0
BBX 8 12 1 0
BITMAP
06
1E
18
00
1E
7F
63
FF
FF
C0
FF
7E
ENDCHAR

STARTCHAR ecircumflex
ENCODING 234
SWIDTH 640 0
DWIDTH 9 0
BBX 8 11 1 0
BITMAP
0C
3F
00
1E
7F
63
FF
FF
C0
FF
7E
ENDCHAR

STARTCHAR edieresis
ENCODING 235
SWIDTH 640 0
DWIDTH 9 0
BBX 8 11 1 0
BITMAP
1B
1B
00
1E
7F
63
FF
FF
C0
FF
7E
ENDCHAR

STARTCHAR igrave
ENCODING 236
SWIDTH 240 0
DWIDTH 3 0
BBX 5 12 1 0
BITMAP
20
78
10
00
60
60
60
60
60
C0
C0
C0
ENDCHAR

STARTCHAR iacute
ENCODING 237
SWIDTH 240 0
DWIDTH 3 0
BBX 5 12 1 0
BITMAP
18
78
60
00
60
60
60
60
60
C0
C0
C0
ENDCHAR

STARTCHAR icircumflex
ENCODING 238
SWIDTH 240 0
DWIDTH 3 0
BBX 6 11 1 0
BITMAP
30
FC
00
60
60
60
60
60
C0
C0
C0
ENDCHAR

STARTCHAR idieresis
ENCODING 239
SWIDTH 240 0
DWIDTH 3 0
BBX 5 11 1 0
BITMAP
D8
D8
00
60
60
60
60
60
C0
C0
C0
ENDCHAR

STARTCHAR eth
ENCODING 240
SWIDTH 640 0
DWIDTH 9 0
BBX 8 11 1 0
BITMAP
1E
0C
16
1E
7F
63
C3
C3
C7
7E
38
ENDCHAR

STARTCHAR ntilde
ENCODING 241
SWIDTH 600 0
DWIDTH 8 0
BBX 8 11 1 0
BITMAP
1E
1F
00
6E
7F
63
63
63
C2
C6
C6
ENDCHAR

STARTCHAR ograve
ENCODING 242
SWIDTH 640 0
DWIDTH 9 0
BBX 8 12 1 0
BITMAP
08
1E
04
00
1E
7F
63
C3
C3
C7
FE
3C
ENDCHAR

STARTCHAR oacute
ENCODING 243
SWIDTH 640 0
DWIDTH 9 0
BBX 8 12 1 0
BITMAP
06
1E
18
00
1E
7F
63
C3
C3
C7
FE
3C
ENDCHAR

STARTCHAR ocircumflex
ENCODING 244
SWIDTH 640 0
DWIDTH 9 0
BBX 8 11 1 0
BITMAP
0C
3F
00
1E
7F
63
C3
C3
C7
FE
3C
ENDCHAR

STARTCHAR otilde
ENCODING 245
SWIDTH 640 0
DWIDTH 9 0
BBX 8 11 1 0
BITMAP
1E
1F
00
1E
7F
63
C3
C3
C7
FE
3C
ENDCHAR

STARTCHAR odieresis
ENCODING 246
SWIDTH 640 0
DWIDTH 9 0
BBX 8 11 1 0
BITMAP
1B
1B
00
1E
7F
63
C3
C3
C7
FE
3C
ENDCHAR

STARTCHAR divide
ENCODING 247
SWIDTH 600 0
DWIDTH 8 0
BBX 7 7 2 1
BITMAP
18
18
FE
FE
00
30
30
ENDCHAR

STARTCHAR oslash
ENCODING 248
SWIDTH 660 0
DWIDTH 9 0
BBX 9 9 1 0
BITMAP
0100
1F80
7F00
6F00
DB00
F300
6700
FE00
BC00
ENDCHAR

STARTCHAR ugrave
ENCODING 249
SWIDTH 600 0
DWIDTH 8 0
BBX 8 12 1 0
BITMAP
08
1E
04
00
63
63
C2
C6
C6
C6
FE
76
ENDCHAR

STARTCHAR uacute
ENCODING 250
SWIDTH 600 0
DWIDTH 8 0
BBX 8 12 1 0
BITMAP
06
1E
18
00
63
63
C2
C6
C6
C6
FE
76
ENDCHAR

STARTCHAR ucircumflex
ENCODING 251
SWIDTH 600 0
DWIDTH 8 0
BBX 8 11 1 0
BITMAP
0C
3F
00
63
63
C2
C6
C6
C6
FE
76
ENDCHAR

STARTCHAR udieresis
ENCODING 252
SWIDTH 600 0
DWIDTH 8 0
BBX 8 11 1 0
BITMAP
36
36
00
63
63
C2
C6
C6
C6
FE
76
ENDCHAR

STARTCHAR yacute
ENCODING 253
SWIDTH 580 0
DWIDTH 8 0
BBX 8 15 1 -3
BITMAP
06
1E
18
00
63
67
66
6C
2C
38
38
30
70
60
C0
ENDCHAR

STARTCHAR thorn
ENCODING 254
SWIDTH 660 0
DWIDTH 9 0
BBX 9 14 0 -3
BITMAP
3000
3000
3000
3F00
3F80
7180
6180
6180
6380
7F00
5E00
C000
C000
C000
ENDCHAR

STARTCHAR ydieresis
ENCODING 255
SWIDTH 580 0
DWIDTH 8 0
BBX 8 14 1 -3
BITMAP
36
36
00
63
67
66
6C
2C
38
38
30
70
60
C0
ENDCHAR
ENDFONT
